<?xml version="1.0" encoding="UTF-8"?>
<svg id="Capa_1" data-name="Capa 1" xmlns="http://www.w3.org/2000/svg" viewBox="0 0 627.72 511.68">
  <defs>
    <style>
      .cls-1 {
        fill: #a7a7a7;
      }

      .cls-2 {
        fill: #414141;
      }
    </style>
  </defs>
  <path class="cls-2" d="M584.68,28.98c.1,1.01-1.39.64-2.01.94.37-.83.55-1.75.99-2.56.23.11.7-.1.98-.07-.21.5.18,1.17.03,1.69Z"/>
  <path class="cls-2" d="M360.66,309.69c.08.41-.05.86.05,1.27-1.93-.57-3.94.07-5.87-.07-14.07-1-4.48-2.09-4.93-2.31l1.33.64c3.69-1.14,6.55-.84,9.42.47Z"/>
  <path class="cls-2" d="M599.6,1.04c.78,2.85,4.46,1.67,6.87,1.96.91-.09,3.27-.11,3.01,1.1-1.21,1.18-2.8.62-3.89,1.34-1.54,1.02-.65,5.88-.35,6.16.67.6,1.48-.59,2.24-1.12,1.14.76,1.67,2.96,1.62,4.35-.56,14.95,3,14.66,3.23,15.46.38,1.32-1.72,2.08-1.66,3.4.05,1.04,1.69,1.85,1.9,2.6.39,1.4-.92,2.71-1.41,4.02-3.05,8.11-1.69,16.4-.93,24.56.41,4.4,0,8.5,1.14,12.56-.78-2.82.18,22.14.21,21.12-.11,3.7-.01,7.23.21,10.91.39,6.41-1.85,13.36-.26,20.18.81,3.46-.2,6.81.3,9.83.61,3.68,2.89,5.65.23,9.74-1.25,1.91.71,5.64.69,7.67,0,.54.13,1.15.04,1.68-1.31,7.19-1,14.67.35,22.18l1.76,9.82c-2.1-11.67.09,49.78-.64,44.02l1.31,10.29c1.18,9.22-2.44,33.33-.67,43.97,1.24,1.23,1.91,1.64,1.65,2.88-.96-.29-2.19-.19-2.74,1.13-1.17,2.81,1.12,4.76,1.57,7.11l-2.52,2.36c-.43.4,0,1.32.58,2.04l-.9.2c-2.81-3.25-13.19-1.68-15.92-.05-2.13,1.27-4.8-.82-7.16-.61-3.83.34-7.33.4-11.16,0-6.19-.65-12.15-.24-18.18-.3l-4.86-.04c-9.56-.08-12.33-.99-22.54-.98l-16.07.02c-5.63,0-11.27.99-16.94.98-2.27,0-4.89.54-7.1.25-7.74-1-21.69,1.28-24.97.99-5.47-.48-10.46-.32-16.06-.05s-25.68-.89-27.45,1.83c-.39.6.1,1.58.17,3.47-2.49-.9-16.69.21-17.22.11-5.39-1.02-9.56-.74-15.11.2l11.85-3.88c-6.3-2.5-11.66-.18-17.4-1.22-.86.3-1.99.18-1.78.56.27.48-.69,2.14-.39,2.45.51.53,2.44-.44,3.34,1.05l-8.05.6c-3.84.29-7.1-.45-11.23.37-2.06.41-5.86.16-7.63-.65-4.62-2.95,28.71,1.22,22.01-4.47l-47.21,1.91c-5.18.21-10.1-1.26-14.77.29-1.17.39-2.76-.46-3.98.05l-.23-1.93c-.16-.43-.19-2.75,1.1-2.72,13.24.32,26.01-1.04,38.75-.79l8.29.17c2.82.06,5.78,1.51,7.99-.57,6.14.63,28.61,1.7,33.22-.86.41-.23,1.19.12,1.66.06.24-.03.63-.01.85.09,3.49,1.77,7.78,1.36,11.99,1.22.56-.03.72-.99.35-1.16.41.11,1.02.17,1.45.1.69,2.54,4.44,1.54,6.61,1.39,4.91-.35,9.77-1.12,14.7-.93.43.02.87.02,1.3.08,2.37.34,5.57-1.32,7.83-.68s2.9.68,5.16-.22c2.53-1.01,6.03-.06,8.64-.35.79-.09,1.62-.04,2.42-.04,26.05-.03,52.11.82,78.56-1.16,2.67-.2,3.69.11,6.22.61,11.4,2.25,23.26,1.07,34.9.13,4.8-.39,9.08-.19,13.52-2.09,2.2-.94,4.27.07,5.99,1.25.36.25,1.02-.98,1.43-1.02.81-.08,1.12,1.19,2.16,1.56.87-9.42-1.84-21.17-.11-27.85,1.89-7.27.14-25.21.08-32.27l-.06-7.74c-.01-1.39.08-2.89-.04-4.31-.11-1.3-.27-2.75-.15-4.04,1.17-12.96.16-45.35-2.68-58.02-.32-1.41.56-3.1-.09-4.56,1.7-3.55,1.9-8.84-.03-12.39-.7-1.29-.02-3.53-.8-4.67,2.46,2.26-.15-22.42-.06-16.38l-.36-23.28c-.06-3.71.64-6.82-.27-10.69-1.36-5.79.59-12.04-.38-17.59,2.05,2.24,1.2-32.67-1.77-28.43.54-12.72.1-25.53-1.63-38.55-.1-.76-2.03-.17-2.61-.04.19-1.25,1.86-1.22,3.03-3.04-5.35-.7-10.68.16-16.06-.15-3.4-.19-7.05-.49-10.12.81-1.01.28-2.74.15-3.83.15l-50.81.05c-.75.5-1.36,1.32-.57,1.71l-1.27-.04c1.02-1.09-.6-1.32-1.1-1.59-.79-.42-1.94.38-2.79.22-16.39-3.23-15.08-.72-31.65-.99l-27.8-.46c-.7.31-1.52.77-1.21,1.26-.53-.14-1.17.11-1.71,0-2.07-1.92-6-1.68-8.29-.23-1.23-.1-2.41-.43-3.62-.62-.71-.11-2.27-.34-2.39.63-4.38-.3-9.67-1.94-13.84.09-1.35-1.91-4.42-1.28-6.17-.11l-2.63.05-.94-.64c-.42-.28-1.05.41-1.41.81l-1.71.02c-.45-.66-1.11-1.05-1.67-1.16-1.2-.24-2.29.84-1.67,1.88-2.55.43-5.38-.49-7.89.08-4.64-2.55-16.81,4.06-16.92-2.75,2.27.33,4.67-.25,7-.21.04.36-.13.93.02,1.51.25.97,1.5.61,1.94.1.33-.39.84-.79,1.04-1.46,3.02.32,6.04-.09,9.07-.35,4.64-.39,9.34.42,13.89-.69,1.35-.33,3.52.14,4.89.03,3.06,1.6,7.06,1.25,10.2.07,1.83-.59,4.81-.51,6.75-.44,5.46.2,10.99.63,16.44-.04,5.05-.62,10.19.5,15.79.3l24.85-.86c.12,1.16,1.75.94,2.6.85.66-.06,1.87-.24,1.64-1.22l1.71-.03c2.28,2.58,6.37,2.19,10.18,2.19h49.92c10.2-.01,19.85-1.26,29.98-.73,1.01.05,2.03-.8,2.55-1.11.56-.33.54-1.31.51-1.98.93.05,2.16.63,3.07.29Z"/>
  <path class="cls-1" d="M36.67,4.73c-.26.69-.37,1.51.24,2.05.48.42,1.33.93,2.3.66,7.65-2.16,15.23-1.72,23.19-1.71l34.32.02c.4.5.22,1.04-.16,1.31-.89.63-25.78.98-29.19,2.95,3.75,1.85,23.69-2.17,25.41,1.2-6.7.21-13.24-.46-20.2.46-5.44.72-10.7-.75-16.08-.37-7.02.5-13.6,3.35-21.06,2.02l10.67-2.42c-12.98-2.13-17.39,2.35-32.71-2.57-1.07-.34-1.5,2.93-1.2,3.75.02.06,17.18,19.36,19.59,19.92.17,1.2.11,2.47.45,3.53.82,2.51,5.35,1.19,5.19,4.79l-2.73-.92c-1.59-.53-1.64,2.35-2.02,3.36-1.44,3.91.65,6.26,1.26,9.3,1.63,8.03-.82,16.32-1.39,24.47l-.85,12.17c-.61,8.68-.11,17.13-.28,25.82-.26,12.86.65,25.07.73,38.07l.33,54.05c.12,20.48,2.86,40.31,1.21,60.66-.28,3.44-4.08,8.74.9,10.91-.8,0-1.47-.36-2.34,0-1.49.63-.17,1.45.9,2.07.46.27.48-.05,1.45.42-1.89-.04-3.39,1.23-5.09,1.89.29-1.45-1.29-2.78-1.27-4.45l.11-13.56c.03-3.58-4.02-32.49-.47-39.15.51-1.25-2.56-3.47-1.07-5.64,1.67-2.42.26-4.91.17-7.41-.4-11.55-.03-22.68.06-34.2l.13-16.68c.05-7.1-.78-13.77.75-20.98,1.65-7.82-1.35-16.03-.39-23.67.67-5.34.49-9.27-1.49-14.62-2.92-7.91,2.05-37.79,2.15-40.2l.93-21.18c.15-3.46.52-5.36-1.99-7.9-5.4-5.47-13.98-14.51-19.25-17.9.22,7.54-.89,14.28.09,21.12l1.07,7.53c2.07,14.5,5.22,28.83,3.84,43.65-.87,9.32-1.04,17.31-1.7,27.24-.46,6.88-2.25,13.93-1.64,20.62.03.35-1.33,1.57-1.58,1.32-.39-.39,4.46-53.33,3.68-60.62-.86-8-.67-15.52-3.72-23.68-.95,10.73-1.46,21.09-1.69,32.02l-.63,30.3.05,41.78c.02,14.61,1.83,28.67,1.37,43.28l-.58,18.12c-.45.37-.87.19-1.35-.15s-.18-.85-.19-1.56l-.36-27.38-2.01.88c-.15-6.8-1.15-13.57-1.83-20.8-2.24-23.91,1.8-39.15.93-54.16-.67-11.53-1.09-22.45-.63-33.98l1.34-33.63c.31-7.75,1.23-15.26.84-22.95-.21-4.17.91-7.99,1.32-12.45.12-1.3,2.38-1.14,3.23-.79.58.24.53,2.02,2.1,1.59-.62-2.55-2.91-3.8-2.23-6.28,7.49.42,14.58-.63,22.04-1.07,2.55-.15,5.12,1.35,7.04-.3Z"/>
  <path class="cls-1" d="M29.51,282.64c-.93,4.67,2.54.51,15,3.01,6.94,1.39,13.89,2.24,20.95,3.01,4.92.53,9.4-.79,14.06-.86l28.6-.45c.74-.01,1.24-1.46,1.95-.74,3.23,3.31-7.02,1.25-17.5,2.89-5.89.92-12.13-.84-17.85.44-12.94,2.89-36.7-6.08-46.87-3.11-5.92,1.73-8.94,8.14-13.29,11.71-1.64,1.35-3.21,2.28-3.12,4.16-.92-.03-1.83-.12-2.72-.35.36-3.39,13.69-15.73,16.96-18.53,1.19-1.01,2.75-.77,3.83-1.19Z"/>
  <path class="cls-1" d="M516.62,302.62c-3.66,1.54,19.62,1.43,16.07-.02,10.21-.01,12.98.89,22.54.98l4.86.04c6.03.05,11.99-.36,18.18.3,3.84.41,7.33.34,11.16,0,2.37-.21,5.03,1.88,7.16.61-.52,3.62,17.48,2.9,15.92.05l.9-.2c2.01,1.08,4.59.88,5.87-.59.51,3.18,1.69,5.38,5.5,6.38-1.95,3.85-3.29-.91-5.57-.58-1.02.15-.56,3.62-2.64,3.1s-3.72-3.3-5.82-3.11l-10.36,1.68c-4.7.76-8.12,3.67-12.9.57-.97-.48-3.2,2.17-4.33,2.32-2.29-2.09-6.11.18-8.28-.33-3.1-.72-5.56.21-7.7.39-5.69.49-13.66-3.41-18.49,2.64-.33.41-2.09-1.55-1.16-1.76-.29.07,3.46-1.93,2.67-3.05-1.97-2.77-5.65,2.21-7.71,2.17-16.64-.27-14.38,4.64-17.75,2.91-.75-.38-1.65-2.04-.97-3.32.4-.75,1.86-.46,2.54-2-2.41-.3-2.59,2.12-4.27,2.04-1.08-.05-1.95-.95-3.1-1.96-.38,2.02-4.48,2.68-3.97,1.32.83-2.18-1.57-4.48-3.86-4.64-1.92-.14-4.33,2.66-7.66,1.66-2.52-.76-5.16-1.02-7.99-.33.99,1.36,2.43,1.08,4.24,2.01-15.73,7.68-5.04-7.46-29.15,2.82-5.71-.82,18.36-6.33,5.45-5.25l-2.32.19-11.93,5.96c-.83-2.19,1.03-2.55,3-3.37-1.89-3.27-11.22,7.32-17.91,6.36-2.55-.37-4.62-3.37-7.68-.26-.69.71-2.65.81-3.26.3-.68-.56-.99-2.69-2.38-3.28-2.37,2.58-5.63,6.65-9.39,4.77,2.79-2.19,6.59-2.23,6.02-6.13-17.92,8.19-15.42,2.6-20.16,3.21-3.56.46-5.18,1.55-8.75.1-2.41-.98-7.9,4.37-10.4,3.03-5.78-3.38-10.01-.54-15.36-.12-3.19.25-8.57-3.92-12.24-.07-.74.78-2.95.62-3.2-.07-1.03-2.79,1.38-6.34.69-9.15-.1-.41.03-.86-.05-1.27,1.78.81,5.57,1.06,7.63.65,4.13-.82,7.39-.09,11.23-.37l8.05-.6c-.9-1.48-2.83-.51-3.34-1.05-.3-.31.67-1.97.39-2.45-.21-.38.92-.26,1.78-.56,5.74,1.04,11.09-1.28,17.4,1.22l-11.85,3.88c5.55-.94,9.72-1.22,15.11-.2.52.1,14.73-1.01,17.22-.11-.07-1.89-.56-2.86-.17-3.47,1.77-2.72,22.09-1.57,27.45-1.83s10.6-.43,16.06.05c3.28.29,17.23-1.99,24.97-.99-.02,1.05-.29,2.53.49,2.84,1.29.51,5.07.16,6.16-.95.5-.51.57-1.38.44-2.15,5.67,0,11.31-.98,16.94-.98Z"/>
  <path class="cls-1" d="M122.66,347.63c-1.88,14.83.55,38.38,7.67,52.25,5.04,9.83,9.87,20.26,18.5,27.33,2.37,1.94,3.59,3.44,5.5,5.66,3.97,4.63,11,6.25,13.36,11.75-1.41-.58-2.31-1.85-3.83-2.55-14.81-6.71-18.52-12.36-28.36-25.24-7.77-10.16-14.7-30.38-14.91-43.31-.13-8.02-1.72-15.8.56-23.89.17-.61-.8-1.74-.06-2,.49-.18,1.18.02,1.57,0Z"/>
</svg>
